<?xml version="1.0" encoding="UTF-8" standalone="no"?>
<svg
    xmlns:dc="http://purl.org/dc/elements/1.1/"
    xmlns:cc="http://creativecommons.org/ns#"
    xmlns:rdf="http://www.w3.org/1999/02/22-rdf-syntax-ns#"
    xmlns="http://www.w3.org/2000/svg"
    viewBox="0 0 962.15997 135"
    height="135"
    width="962.15997"
    xml:space="preserve"
    id="svg2"
    version="1.1"><metadata
     id="metadata8"><rdf:RDF><cc:Work
         rdf:about=""><dc:format>image/svg+xml</dc:format><dc:type
    rdf:resource="http://purl.org/dc/dcmitype/StillImage"/></cc:Work></rdf:RDF></metadata>
    <defs
        id="defs6"/>
    <g
        transform="matrix(1.3333333,0,0,-1.3333333,0,135)"
        id="g10"><g
       transform="scale(0.1)"
       id="g12"><path
         id="path14"
         style="fill:#f25c24;fill-opacity:1;fill-rule:nonzero;stroke:none"
         d="m 4002.01,470.848 v 2.222 c 0,169.789 -135.64,305.43 -318.7,305.43 -184.15,0 -320.86,-137.84 -320.86,-307.652 v -2.196 c 0,-169.808 135.62,-305.453 318.66,-305.453 184.14,0 320.9,137.832 320.9,307.649 m -165.41,-2.196 c 0,-87.121 -57.34,-161 -153.29,-161 -92.61,0 -155.47,76.086 -155.47,163.196 v 2.222 c 0,87.102 57.35,160.961 153.27,160.961 92.63,0 155.49,-76.062 155.49,-163.183 v -2.196" /><path
        id="path16"
        style="fill:#6a7478;fill-opacity:1;fill-rule:nonzero;stroke:none"
        d="m 2901.09,470.848 v 2.222 c 0,197.379 -131.21,305.43 -269.05,305.43 -87.1,0 -143.35,-40.809 -184.15,-95.926 v 84.895 H 2290.34 V 0 h 157.55 v 253.609 c 39.68,-47.394 94.84,-88.175 184.15,-88.175 140.03,0 269.05,108.027 269.05,305.414 m -150.85,0 c 0,-99.246 -66.17,-163.196 -144.45,-163.196 -78.29,0 -143.35,65.047 -143.35,163.196 v 2.222 c 0,98.129 65.06,163.188 143.35,163.188 78.28,0 144.45,-65.059 144.45,-163.188 v -2.222"/><path
        id="path18"
        style="fill:#6a7478;fill-opacity:1;fill-rule:nonzero;stroke:none"
        d="m 2187.88,176.449 v 384.824 c 0,142.235 -75,217.223 -199.6,217.223 -80.48,0 -142.25,-33.07 -194.06,-93.73 -30.87,59.55 -89.32,93.73 -166.52,93.73 -84.9,0 -135.62,-45.211 -174.22,-94.828 v 83.809 h -167.6 V 176.449 h 167.6 v 329.68 c 0,79.387 38.6,120.199 101.47,120.199 62.83,0 98.12,-40.812 98.12,-120.199 v -329.68 h 167.6 v 329.68 c 0,79.387 38.6,120.199 101.47,120.199 62.85,0 98.13,-40.812 98.13,-120.199 v -329.68 h 167.61"/><path
        id="path20"
        style="fill:#6a7478;fill-opacity:1;fill-rule:nonzero;stroke:none"
        d="m 1185.6,176.684 c 0,0 -0.95,284.218 -0.95,383.754 0,117.71 -91.46,218.183 -263.728,218.183 -175.125,0 -255.067,-98.75 -255.067,-228.148 H 822.32 c 1.993,13.738 -5.097,83.75 93.582,83.75 71.153,0 105.548,-20.961 105.548,-56.961 0,-98.848 -362.313,15.058 -362.313,-247.473 0,-127.285 92.937,-166.531 180.027,-166.531 133.984,0 182.286,75.566 182.286,75.566 l -1.4,-61.953 z M 893.949,284.34 c -47.527,0 -76.543,24.883 -76.543,56.461 0,36.383 17.559,55.23 69.844,62.918 109.055,16.051 135.88,32.234 135.88,32.234 C 1039.25,302.719 944.66,284.34 893.949,284.34"/><path
        id="path22"
        style="fill:#6a7378;fill-opacity:1;fill-rule:nonzero;stroke:none"
        d="m 438.781,389.457 c -7.644,-32.738 -45.047,-81.812 -123.406,-81.812 -91.504,0 -149.949,72.785 -149.949,163.203 v 2.218 c 0,87.102 59.539,160.973 143.347,160.973 82.122,0 118.965,-44.879 130.008,-83.57 H 595.246 C 592.719,624.305 524.945,778.496 309.859,778.496 129.035,778.496 0.00390625,639.547 0.00390625,470.848 v -2.2 C 0.00390625,299.938 130.141,163.207 307.672,163.207 c 211.922,0 285.047,156.66 287.574,226.25 H 438.781"/><path
        id="path24"
        style="fill:#6a7478;fill-opacity:1;fill-rule:nonzero;stroke:none"
        d="m 6966.5,470.848 v 2.222 c 0,197.379 -131.21,305.43 -269.04,305.43 -87.11,0 -143.36,-40.809 -184.15,-95.926 v 84.895 H 6355.75 V 0 h 157.56 v 253.609 c 39.68,-47.394 94.83,-88.175 184.15,-88.175 140.03,0 269.04,108.027 269.04,305.414 m -150.85,0 c 0,-99.246 -66.17,-163.196 -144.43,-163.196 -78.3,0 -143.37,65.047 -143.37,163.196 v 2.222 c 0,98.129 65.07,163.188 143.37,163.188 78.26,0 144.43,-65.059 144.43,-163.188 v -2.222"/><path
        id="path26"
        style="fill:#6a7478;fill-opacity:1;fill-rule:nonzero;stroke:none"
        d="m 6253.3,176.449 v 384.824 c 0,142.235 -74.99,217.223 -199.61,217.223 -80.48,0 -142.25,-33.07 -194.06,-93.73 -30.87,59.55 -89.32,93.73 -166.52,93.73 -84.9,0 -135.61,-45.211 -174.22,-94.828 v 83.809 h -167.6 V 176.449 h 167.6 v 329.68 c 0,79.387 38.61,120.199 101.47,120.199 62.83,0 98.12,-40.812 98.12,-120.199 v -329.68 h 167.6 v 329.68 c 0,79.387 38.6,120.199 101.47,120.199 62.86,0 98.13,-40.812 98.13,-120.199 v -329.68 h 167.62"/><path
        id="path28"
        style="fill:#6a7478;fill-opacity:1;fill-rule:nonzero;stroke:none"
        d="m 5251.02,176.684 c 0,0 -0.96,284.218 -0.96,383.754 0,117.71 -91.46,218.183 -263.73,218.183 -175.12,0 -255.07,-98.75 -255.07,-228.148 h 156.48 c 1.98,13.738 -5.11,83.75 93.57,83.75 71.15,0 105.56,-20.961 105.56,-56.961 0,-98.848 -362.33,15.058 -362.33,-247.473 0,-127.285 92.93,-166.531 180.03,-166.531 134,0 182.3,75.566 182.3,75.566 l -1.41,-61.953 z M 4959.37,284.34 c -47.53,0 -76.55,24.883 -76.55,56.461 0,36.383 17.56,55.23 69.85,62.918 109.04,16.051 135.88,32.234 135.88,32.234 16.11,-133.234 -78.48,-151.613 -129.18,-151.613"/><path
        id="path30"
        style="fill:#6a7478;fill-opacity:1;fill-rule:nonzero;stroke:none"
        d="m 4504.19,389.457 c -7.64,-32.738 -45.05,-81.812 -123.4,-81.812 -91.51,0 -149.96,72.785 -149.96,163.203 v 2.218 c 0,87.102 59.55,160.973 143.35,160.973 82.12,0 118.97,-44.879 130.01,-83.57 h 156.47 c -2.53,73.836 -70.29,228.027 -285.38,228.027 -180.83,0 -309.87,-138.949 -309.87,-307.648 v -2.2 c 0,-168.71 130.14,-305.441 307.67,-305.441 211.92,0 285.05,156.66 287.58,226.25 h -156.47"/><path
        id="path32"
        style="fill:#f25c24;fill-opacity:1;fill-rule:nonzero;stroke:none"
        d="M 7216.22,767.469 V 876.402 H 7189 v 27.227 h -27.23 v 54.461 h -27.23 v 27.23 h -27.24 v -54.461 h -27.23 v -27.23 h 27.23 v -27.227 h -27.23 v 27.227 h -27.23 v -27.227 h -27.23 V 849.16 h -27.23 v -27.23 h -27.23 v 27.23 h -27.23 V 767.469 Z M 7080.07,985.32 h -27.23 v -27.23 h 27.23 z m -27.23,-27.23 h -27.23 v -27.231 h 27.23 z m -27.23,-27.231 h -27.23 v -27.23 h 27.23 z m -27.23,-27.23 h -27.23 v -54.457 h 27.23 z m 81.69,81.691 h 27.23 v 27.23 h -27.23 v -27.23"/><path
        id="path34"
        style="fill:#f25c24;fill-opacity:1;fill-rule:nonzero;stroke:none"
        d="m 3315.38,316.316 c 0,0 -22.13,-2.402 -59.54,-2.402 -37.39,0 -58.68,23.406 -58.68,62.375 v 247.816 h 122.18 v 143.36 H 3197.16 V 918.543 H 3029.54 V 767.465 h -94 v -143.36 h 94 v -269.73 c 0,-136.754 68.69,-184.605 172.03,-184.605 72.15,0 113.81,7.082 113.81,7.082 v 139.464"/></g></g></svg>